<svg width="29" height="40" viewBox="0 0 29 40" fill="none" xmlns="http://www.w3.org/2000/svg">
  <!-- Halo / contour (fenêtres révélées par cette couche) -->
  <path d="M13.9807 0C15.8202 0.000179814 17.4555 0.863085 18.5063 2.20134H24.1868C24.8759 2.20134 25.5071 2.58602 25.8223 3.19795L27.7964 7.03191C28.0896 7.60144 28.0648 8.2829 27.7308 8.82958C27.5164 9.18032 27.1944 9.44239 26.8219 9.58579V38.1629C26.8219 39.1775 25.9984 40 24.9826 40H3.01654C2.0007 40 1.1772 39.1775 1.1772 38.1629V9.58489C0.805193 9.4414 0.483356 9.17998 0.269213 8.82958C-0.064778 8.2829 -0.0895892 7.60144 0.203651 7.03191L2.1777 3.19795L2.24057 3.08582C2.57221 2.53942 3.16724 2.20134 3.81316 2.20134H9.45421C10.5053 0.862791 12.1412 0 13.9807 0Z" fill="#ffffff"/>
  <!-- Corps du bâtiment (fenêtres = ajours) -->
  <path d="M13.9814 2C15.5107 2.00024 16.8768 2.70941 17.5 4H24L26 8H25V37.999H16.2627V30.0771C16.2627 28.7974 15.2251 27.7598 13.9453 27.7598C12.6655 27.7598 11.6279 28.7973 11.6279 30.0771V37.999H3V7.99707L2 8L4 4H10.5C11.1233 2.7092 12.4519 2 13.9814 2ZM7.50488 29.8438C6.67397 29.8438 6.00014 30.5177 6 31.3486V35.7998H9.05273V31.3486C9.05259 30.5177 8.37877 29.8438 7.54785 29.8438H7.50488ZM20.4521 29.8438C19.6212 29.8438 18.9474 30.5177 18.9473 31.3486V35.7998H22V31.3486C21.9999 30.5177 21.326 29.8438 20.4951 29.8438H20.4521ZM7.52637 18.3799C6.68337 18.3799 6 19.0632 6 19.9062V24.335H9.05273V19.9062C9.05273 19.0632 8.36941 18.3799 7.52637 18.3799ZM13.9258 18.3799C13.0828 18.3799 12.3994 19.0632 12.3994 19.9062V24.335H15.4521V19.9062C15.4521 19.0632 14.7688 18.3799 13.9258 18.3799ZM20.4736 18.3799C19.6306 18.3799 18.9473 19.0632 18.9473 19.9062V24.335H22V19.9062C22 19.0632 21.3167 18.3799 20.4736 18.3799ZM7.52637 9C6.68337 9.00005 6 9.68336 6 10.5264V14.9551H9.05273V10.5264C9.05273 9.68332 8.36941 9 7.52637 9ZM13.9258 9C13.0828 9.00005 12.3994 9.68336 12.3994 10.5264V14.9551H15.4521V10.5264C15.4521 9.68332 14.7688 9 13.9258 9ZM20.4736 9C19.6306 9.00005 18.9473 9.68336 18.9473 10.5264V14.9551H22V10.5264C22 9.68332 21.3167 9 20.4736 9Z" fill="#171610"/>
</svg>
